<svg width="108" height="26" viewBox="0 0 108 26" fill="none" xmlns="http://www.w3.org/2000/svg">
<path d="M10.432 2.53365V24.8696H5.952V6.14965H0V2.53365H10.432Z" fill="#FFFFFF"/>
<path d="M24.5248 25.1576C22.8181 25.1576 21.2821 24.7843 19.9167 24.0376C18.5514 23.2696 17.4741 22.1923 16.6847 20.8056C15.9167 19.419 15.5327 17.819 15.5327 16.0056C15.5327 14.1923 15.9274 12.5923 16.7167 11.2056C17.5274 9.81898 18.6261 8.75231 20.0128 8.00565C21.3994 7.23765 22.9461 6.85365 24.6528 6.85365C26.3594 6.85365 27.9061 7.23765 29.2928 8.00565C30.6794 8.75231 31.7674 9.81898 32.5568 11.2056C33.3674 12.5923 33.7728 14.1923 33.7728 16.0056C33.7728 17.819 33.3568 19.419 32.5247 20.8056C31.7141 22.1923 30.6047 23.2696 29.1968 24.0376C27.8101 24.7843 26.2528 25.1576 24.5248 25.1576ZM24.5248 21.2536C25.3354 21.2536 26.0928 21.0616 26.7968 20.6776C27.5221 20.2723 28.0981 19.675 28.5248 18.8856C28.9514 18.0963 29.1647 17.1363 29.1647 16.0056C29.1647 14.3203 28.7168 13.0296 27.8208 12.1336C26.9461 11.2163 25.8688 10.7576 24.5888 10.7576C23.3088 10.7576 22.2314 11.2163 21.3568 12.1336C20.5034 13.0296 20.0767 14.3203 20.0767 16.0056C20.0767 17.691 20.4928 18.9923 21.3248 19.9096C22.1781 20.8056 23.2448 21.2536 24.5248 21.2536Z" fill="#FFFFFF"/>
<path d="M42.275 10.8216V19.3976C42.275 19.995 42.4137 20.4323 42.691 20.7096C42.9897 20.9656 43.4803 21.0936 44.163 21.0936H46.243V24.8696H43.427C39.651 24.8696 37.763 23.035 37.763 19.3656V10.8216H35.651V7.14165H37.763V2.75765H42.275V7.14165H46.243V10.8216H42.275Z" fill="#FFFFFF"/>
<path d="M56.2493 25.1576C54.7986 25.1576 53.4972 24.9016 52.3452 24.3896C51.1932 23.8563 50.2759 23.1416 49.5933 22.2456C48.9319 21.3496 48.5692 20.3576 48.5052 19.2696H53.0173C53.1026 19.9523 53.4333 20.5176 54.0093 20.9656C54.6066 21.4136 55.3426 21.6376 56.2173 21.6376C57.0706 21.6376 57.7319 21.467 58.2013 21.1256C58.6919 20.7843 58.9373 20.347 58.9373 19.8136C58.9373 19.2376 58.6386 18.811 58.0413 18.5336C57.4653 18.235 56.5373 17.915 55.2573 17.5736C53.9346 17.2536 52.8466 16.923 51.9933 16.5816C51.1613 16.2403 50.4359 15.7176 49.8172 15.0136C49.2199 14.3096 48.9212 13.3603 48.9212 12.1656C48.9212 11.1843 49.1986 10.2883 49.7533 9.47765C50.3293 8.66698 51.1399 8.02698 52.1852 7.55765C53.2519 7.08831 54.4999 6.85365 55.9293 6.85365C58.0413 6.85365 59.7266 7.38698 60.9853 8.45365C62.2439 9.49898 62.9373 10.9176 63.0653 12.7096H58.7773C58.7133 12.0056 58.4146 11.451 57.8813 11.0456C57.3693 10.619 56.6759 10.4056 55.8013 10.4056C54.9906 10.4056 54.3613 10.555 53.9132 10.8536C53.4866 11.1523 53.2733 11.5683 53.2733 12.1016C53.2733 12.699 53.5719 13.1576 54.1693 13.4776C54.7666 13.7763 55.6946 14.0856 56.9533 14.4056C58.2332 14.7256 59.2892 15.0563 60.1213 15.3976C60.9533 15.739 61.6679 16.2723 62.2653 16.9976C62.8839 17.7016 63.2039 18.6403 63.2253 19.8136C63.2253 20.8376 62.9373 21.755 62.3613 22.5656C61.8066 23.3763 60.9959 24.0163 59.9293 24.4856C58.8839 24.9336 57.6573 25.1576 56.2493 25.1576Z" fill="#432DD7"/>
<path d="M74.7747 25.1576C73.0681 25.1576 71.5321 24.7843 70.1667 24.0376C68.8014 23.2696 67.7241 22.1923 66.9348 20.8056C66.1668 19.419 65.7828 17.819 65.7828 16.0056C65.7828 14.1923 66.1774 12.5923 66.9668 11.2056C67.7774 9.81898 68.8761 8.75231 70.2627 8.00565C71.6494 7.23765 73.1961 6.85365 74.9027 6.85365C76.6094 6.85365 78.1561 7.23765 79.5427 8.00565C80.9294 8.75231 82.0174 9.81898 82.8068 11.2056C83.6174 12.5923 84.0228 14.1923 84.0228 16.0056C84.0228 17.819 83.6068 19.419 82.7747 20.8056C81.9641 22.1923 80.8548 23.2696 79.4468 24.0376C78.0601 24.7843 76.5027 25.1576 74.7747 25.1576ZM74.7747 21.2536C75.5854 21.2536 76.3428 21.0616 77.0468 20.6776C77.7721 20.2723 78.3481 19.675 78.7747 18.8856C79.2014 18.0963 79.4147 17.1363 79.4147 16.0056C79.4147 14.3203 78.9668 13.0296 78.0707 12.1336C77.1961 11.2163 76.1188 10.7576 74.8388 10.7576C73.5588 10.7576 72.4814 11.2163 71.6068 12.1336C70.7534 13.0296 70.3268 14.3203 70.3268 16.0056C70.3268 17.691 70.7428 18.9923 71.5748 19.9096C72.4281 20.8056 73.4948 21.2536 74.7747 21.2536Z" fill="#432DD7"/>
<path d="M95.437 10.8216H92.333V24.8696H87.789V10.8216H85.773V7.14165H87.789V6.24565C87.789 4.06965 88.4077 2.46965 89.645 1.44565C90.8823 0.421646 92.749 -0.0583533 95.245 0.00564714V3.78165C94.157 3.76031 93.3997 3.94165 92.973 4.32565C92.5463 4.70965 92.333 5.40298 92.333 6.40565V7.14165H95.437V10.8216Z" fill="#432DD7"/>
<path d="M103.556 10.8216V19.3976C103.556 19.995 103.695 20.4323 103.972 20.7096C104.271 20.9656 104.762 21.0936 105.444 21.0936H107.524V24.8696H104.708C100.932 24.8696 99.0443 23.035 99.0443 19.3656V10.8216H96.9323V7.14165H99.0443V2.75765H103.556V7.14165H107.524V10.8216H103.556Z" fill="#432DD7"/>
<path d="M11.3416 2.53536L16.7081 2.53624V6.14952L11.3416 6.14864V2.53536Z" fill="#432DD7"/>
</svg>
